<?xml version="1.0" encoding="UTF-8"?>
<svg xmlns="http://www.w3.org/2000/svg" version="1.1" viewBox="0 0 71.4 72.6">
  <defs>
    <style>
      .cls-1 {
        font-family: MyriadPro-Regular, 'Myriad Pro';
        font-size: 12px;
      }

      .cls-2 {
        fill: #fff;
      }

      .cls-3 {
        fill: #0f0d90;
      }

      .cls-4 {
        fill: #a1c8f6;
      }
    </style>
  </defs>
  <!-- Generator: Adobe Illustrator 28.7.8, SVG Export Plug-In . SVG Version: 1.2.0 Build 200)  -->
  <g>
    <g id="Layer_1">
      <text class="cls-1" transform="translate(82.3 113)"><tspan x="0" y="0">projeto grafico</tspan></text>
      <text class="cls-1" transform="translate(82.3 254.4)"><tspan x="0" y="0">redesign</tspan></text>
      <text class="cls-1" transform="translate(80.4 182.2)"><tspan x="0" y="0">font</tspan></text>
      <g>
        <rect class="cls-4" x="14.6" y="101.5" width="7.2" height="7.2" rx="1.6" ry="1.6"/>
        <rect class="cls-4" x="52.6" y="101.5" width="7.2" height="7.2" rx="1.6" ry="1.6"/>
        <path class="cls-4" d="M21.8,83.2c0,2-1.6,3.6-3.6,3.6s-2.4-.7-3.1-1.7v-3.9c.6-1,1.8-1.7,3.1-1.7,2,0,3.6,1.6,3.6,3.6Z"/>
        <rect class="cls-4" x="33.6" y="79.5" width="7.2" height="7.2" rx="1.6" ry="1.6"/>
        <circle class="cls-4" cx="56.2" cy="83.2" r="3.6"/>
        <path class="cls-3" d="M48,132.8h-21.6c-.3,0-.6-.3-.6-.6v-6c0-.3.3-.6.6-.6h21.6c.3,0,.6.3.6.6v6c0,.3-.3.6-.6.6ZM27,131.5h20.3v-4.8h-20.3v4.8Z"/>
        <path class="cls-3" d="M61.2,126.8H13.2c-1.4,0-2.6-1.2-2.6-2.6v-4c0-.3.3-.6.6-.6h52c.3,0,.6.3.6.6v4c0,1.4-1.2,2.6-2.6,2.6ZM11.8,120.8v3.4c0,.8.6,1.4,1.4,1.4h48c.8,0,1.4-.6,1.4-1.4v-3.4H11.8Z"/>
        <path class="cls-3" d="M63.2,120.8H11.2c-.3,0-.6-.3-.6-.6v-37c0-.3.3-.6.6-.6s.6.3.6.6v36.4h50.8v-36.4c0-.3.3-.6.6-.6s.6.3.6.6v37c0,.3-.3.6-.6.6Z"/>
        <path class="cls-3" d="M53.2,132.8H21.2c-.3,0-.6-.3-.6-.6s.3-.6.6-.6h32c.3,0,.6.3.6.6s-.3.6-.6.6Z"/>
        <path class="cls-3" d="M43.2,117.8c0,0-.1,0-.2,0-.3-.1-.5-.5-.4-.8l3.9-11.7-9.3-14-9.3,14,3.9,11.7c.1.3,0,.7-.4.8-.3.1-.7,0-.8-.4l-4-12c0-.2,0-.4,0-.5l10-15c.2-.3.8-.3,1,0l10,15c.1.2.1.4,0,.5l-4,12c0,.3-.3.4-.6.4Z"/>
        <path class="cls-3" d="M37.2,108.8c-2,0-3.6-1.6-3.6-3.6s1.6-3.6,3.6-3.6,3.6,1.6,3.6,3.6-1.6,3.6-3.6,3.6ZM37.2,102.8c-1.3,0-2.4,1.1-2.4,2.4s1.1,2.4,2.4,2.4,2.4-1.1,2.4-2.4-1.1-2.4-2.4-2.4Z"/>
        <path class="cls-3" d="M56.2,79.5c-2,0-3.6,1.6-3.6,3.6s1.6,3.6,3.6,3.6,3.6-1.6,3.6-3.6-1.6-3.6-3.6-3.6ZM56.2,85.5c-1.3,0-2.4-1.1-2.4-2.4s1.1-2.4,2.4-2.4,2.4,1.1,2.4,2.4-1.1,2.4-2.4,2.4Z"/>
        <path class="cls-3" d="M18.2,79.5c-1.3,0-2.4.7-3.1,1.7-.4.6-.6,1.2-.6,1.9s.2,1.4.6,1.9c.6,1,1.8,1.7,3.1,1.7,2,0,3.6-1.6,3.6-3.6s-1.6-3.6-3.6-3.6ZM18.2,85.5c-1.3,0-2.4-1.1-2.4-2.4s1.1-2.4,2.4-2.4,2.4,1.1,2.4,2.4-1.1,2.4-2.4,2.4Z"/>
        <path class="cls-3" d="M37.2,102.8c-.3,0-.6-.3-.6-.6v-12c0-.3.3-.6.6-.6s.6.3.6.6v12c0,.3-.3.6-.6.6Z"/>
        <path class="cls-3" d="M53.2,83.8h-13c-.3,0-.6-.3-.6-.6s.3-.6.6-.6h13c.3,0,.6.3.6.6s-.3.6-.6.6Z"/>
        <path class="cls-3" d="M34.2,83.8h-13c-.3,0-.6-.3-.6-.6s.3-.6.6-.6h13c.3,0,.6.3.6.6s-.3.6-.6.6Z"/>
        <path class="cls-3" d="M39.2,79.5h-4c-.9,0-1.6.7-1.6,1.6v4c0,.9.7,1.6,1.6,1.6h4c.9,0,1.6-.7,1.6-1.6v-4c0-.9-.7-1.6-1.6-1.6ZM39.6,85.2c0,.2-.2.4-.4.4h-4c-.2,0-.4-.2-.4-.4v-4c0-.2.2-.4.4-.4h4c.2,0,.4.2.4.4v4Z"/>
        <path class="cls-3" d="M58.2,101.5h-4c-.9,0-1.6.7-1.6,1.6v4c0,.9.7,1.6,1.6,1.6h4c.9,0,1.6-.7,1.6-1.6v-4c0-.9-.7-1.6-1.6-1.6ZM58.6,107.2c0,.2-.2.4-.4.4h-4c-.2,0-.4-.2-.4-.4v-4c0-.2.2-.4.4-.4h4c.2,0,.4.2.4.4v4Z"/>
        <path class="cls-3" d="M20.2,101.5h-4c-.9,0-1.6.7-1.6,1.6v4c0,.9.7,1.6,1.6,1.6h4c.9,0,1.6-.7,1.6-1.6v-4c0-.9-.7-1.6-1.6-1.6ZM20.6,107.2c0,.2-.2.4-.4.4h-4c-.2,0-.4-.2-.4-.4v-4c0-.2.2-.4.4-.4h4c.2,0,.4.2.4.4v4Z"/>
        <path class="cls-3" d="M56.2,102.8c-.3,0-.6-.3-.6-.6,0-9.1-6.5-16.7-15.5-18.1-.3,0-.6-.4-.5-.7,0-.3.4-.6.7-.5,9.6,1.5,16.5,9.7,16.5,19.4s-.3.6-.6.6Z"/>
        <path class="cls-3" d="M18.2,102.8c-.3,0-.6-.3-.6-.6,0-9.7,7-17.9,16.5-19.4.3,0,.7.2.7.5s-.2.7-.5.7c-9,1.4-15.5,9.1-15.5,18.1s-.3.6-.6.6Z"/>
      </g>
      <g>
        <path class="cls-4" d="M51.3,164.5h-26c-.3,0-.6.3-.6.6v5c0,.3.3.6.6.6h9.4v20.4h7.2v-20.4h9.4c.3,0,.6-.3.6-.6v-5c0-.3-.3-.6-.6-.6Z"/>
        <path class="cls-3" d="M16.3,204.8c-.3,0-.6-.3-.6-.6v-52c0-.3.3-.6.6-.6s.6.3.6.6v52c0,.3-.3.6-.6.6Z"/>
        <path class="cls-3" d="M60.3,188.8c-.3,0-.6-.3-.6-.6v-36c0-.3.3-.6.6-.6s.6.3.6.6v36c0,.3-.3.6-.6.6Z"/>
        <path class="cls-3" d="M64.3,156.8H12.3c-.3,0-.6-.3-.6-.6s.3-.6.6-.6h52c.3,0,.6.3.6.6s-.3.6-.6.6Z"/>
        <path class="cls-3" d="M48.3,200.8H12.3c-.3,0-.6-.3-.6-.6s.3-.6.6-.6h36c.3,0,.6.3.6.6s-.3.6-.6.6Z"/>
        <path class="cls-3" d="M53.7,204.8c-.3,0-.5-.2-.6-.4l-5.4-16c0-.2,0-.5.1-.6s.4-.2.6-.1l16,5.4c.3,0,.4.3.4.6,0,.3-.2.5-.5.6l-7.9,2.2-2.2,7.9c0,.3-.3.4-.6.5h0ZM49.3,189.1l4.3,12.9,1.8-6.3c0-.2.2-.4.4-.4l6.3-1.8-12.9-4.3Z"/>
        <path class="cls-3" d="M51.3,164.5h-26c-.3,0-.6.3-.6.6v5c0,.3.3.6.6.6h9.4v20.4c0,.3.3.6.6.6h6c.3,0,.6-.3.6-.6v-20.4h9.4c.3,0,.6-.3.6-.6v-5c0-.3-.3-.6-.6-.6ZM50.7,169.5h-9.4c-.3,0-.6.3-.6.6v20.4h-4.8v-20.4c0-.3-.3-.6-.6-.6h-9.4v-3.8h24.8v3.8Z"/>
        <path class="cls-3" d="M43.3,191.8h-10c-.3,0-.6-.3-.6-.6s.3-.6.6-.6h10c.3,0,.6.3.6.6s-.3.6-.6.6Z"/>
        <path class="cls-3" d="M51.3,172.8c-.3,0-.6-.3-.6-.6v-7c0-.3.3-.6.6-.6s.6.3.6.6v7c0,.3-.3.6-.6.6Z"/>
        <path class="cls-3" d="M25.3,172.8c-.3,0-.6-.3-.6-.6v-7c0-.3.3-.6.6-.6s.6.3.6.6v7c0,.3-.3.6-.6.6Z"/>
      </g>
      <g>
        <path class="cls-4" d="M63.1,231.8l-3.4,3.3-.9.9-18.7,18.7h0s-.6.5-.6.5l-8.2-8.2.5-.5,18.7-18.7.9-.9,3.4-3.4c1-.2,2,.1,2.7.8l4.6,4.6c.8.8,1,1.8.8,2.8Z"/>
        <g>
          <path class="cls-3" d="M62.3,229l-4.6-4.6c-.7-.7-1.7-1-2.7-.8-.6,0-1.2.4-1.7.8l-3,3-19.1,19.1c0,0-.1.2-.2.3h0c0,.3,0,.5.2.6l.7.7,6.6,6.6.7.7c.1.1.3.2.4.2s0,0,.1,0h0c.1,0,.2-.1.3-.2l19.1-19.1.9-.9,2.2-2.1c.4-.4.7-1,.8-1.6.2-1,0-2.1-.8-2.8ZM56.8,225.3l4.6,4.6c.7.7.7,1.9,0,2.6l-2.1,2.2-.9.9-18.7,18.7-3.1-3.1-4-4,18.7-18.7.9-.9,2.1-2.2c.7-.7,1.9-.7,2.6,0Z"/>
          <path class="cls-3" d="M40.2,254.8h0s0,0,0-.1l-.4-.4-3.1-3.1-4.5-4.5s0,0,0,0c-.2-.1-.4-.2-.6-.1-.1,0-.2,0-.3.1,0,0-.1.2-.2.3h0c0,0-1.6,4.9-1.6,4.9,0,0,0,0,0,.1l-2.3,7c0,.2,0,.5.1.6.1.1.3.2.4.2s.1,0,.2,0l7-2.3s0,0,.1,0l4.8-1.6h0c.1,0,.2-.1.3-.2,0,0,.1-.2.1-.3,0-.2,0-.3,0-.5ZM34.9,256.1l-1.3.4-5,1.7,1.7-5,.4-1.3,1.2-3.6,6.6,6.6-3.6,1.2Z"/>
          <path class="cls-3" d="M36,251.3c-.2,0-.3,0-.4-.2-.2-.2-.2-.6,0-.9l19.2-19.2c.2-.2.6-.2.9,0,.2.2.2.6,0,.9l-19.2,19.2c-.1.1-.3.2-.4.2Z"/>
          <path class="cls-3" d="M59.7,236.6c-.2,0-.3,0-.4-.2l-9-9c-.2-.2-.2-.6,0-.9s.6-.2.9,0l9,9c.2.2.2.6,0,.9-.1.1-.3.2-.4.2Z"/>
          <path class="cls-3" d="M34.7,257.4c-.2,0-.3,0-.4-.2l-4.8-4.8c-.2-.2-.2-.6,0-.9s.6-.2.9,0l4.8,4.8c.2.2.2.6,0,.9-.1.1-.3.2-.4.2Z"/>
        </g>
        <g>
          <path class="cls-3" d="M43.3,232c0,0-.1,0-.2,0-2.1-.8-4.3-1.2-6.5-1.2s-.6-.3-.6-.6v-6c0-.3.3-.6.6-.6,4,0,7.9.9,11.6,2.7.3.2.4.5.3.8-.2.3-.5.4-.8.3-3.3-1.6-6.8-2.5-10.4-2.6v4.8c2.1,0,4.3.5,6.3,1.2.3.1.5.5.4.8,0,.3-.3.4-.6.4Z"/>
          <path class="cls-3" d="M36.6,276.8c-14.7,0-26.6-11.9-26.6-26.6s2.1-12.1,6-16.8l-2.6-2.6c-.2-.2-.2-.4-.2-.6,0-.2.2-.4.4-.4l13.9-3.7c.2,0,.4,0,.6.2.2.2.2.4.2.6l-3.7,13.9c0,.2-.2.4-.4.4-.2,0-.4,0-.6-.2l-2.4-2.4c-2.5,3.4-3.9,7.4-3.9,11.6,0,10.7,8.7,19.4,19.4,19.4s19.4-8.7,19.4-19.4-.4-4.4-1.2-6.5c-.1-.3,0-.7.4-.8.3-.1.7,0,.8.4.8,2.3,1.2,4.6,1.2,7,0,11.4-9.3,20.6-20.6,20.6s-20.6-9.3-20.6-20.6,1.6-9.3,4.6-13c.1-.1.3-.2.5-.2.2,0,.3,0,.5.2l2.1,2.1,3.2-11.8-11.8,3.2,2.3,2.3c.2.2.2.6,0,.8-3.9,4.6-6,10.4-6,16.4,0,14,11.4,25.4,25.4,25.4s25.4-11.4,25.4-25.4-.9-7.6-2.6-11c-.2-.3,0-.7.3-.8.3-.1.7,0,.8.3,1.8,3.7,2.7,7.6,2.7,11.6,0,14.7-11.9,26.6-26.6,26.6Z"/>
        </g>
      </g>
      <g>
        <rect class="cls-4" x="13.1" y="31.7" width="7.2" height="7.2" rx="1.6" ry="1.6"/>
        <rect class="cls-4" x="51.1" y="31.7" width="7.2" height="7.2" rx="1.6" ry="1.6"/>
        <path class="cls-4" d="M20.3,13.3c0,2-1.6,3.6-3.6,3.6s-2.4-.7-3.1-1.7v-3.9c.6-1,1.8-1.7,3.1-1.7,2,0,3.6,1.6,3.6,3.6Z"/>
        <rect class="cls-4" x="32.1" y="9.7" width="7.2" height="7.2" rx="1.6" ry="1.6"/>
        <circle class="cls-4" cx="54.7" cy="13.3" r="3.6"/>
        <path class="cls-2" d="M46.5,62.9h-21.6c-.3,0-.6-.3-.6-.6v-6c0-.3.3-.6.6-.6h21.6c.3,0,.6.3.6.6v6c0,.3-.3.6-.6.6ZM25.5,61.7h20.3v-4.8h-20.3v4.8Z"/>
        <path class="cls-2" d="M59.7,56.9H11.7c-1.4,0-2.6-1.2-2.6-2.6v-4c0-.3.3-.6.6-.6h52c.3,0,.6.3.6.6v4c0,1.4-1.2,2.6-2.6,2.6ZM10.3,50.9v3.4c0,.8.6,1.4,1.4,1.4h48c.8,0,1.4-.6,1.4-1.4v-3.4H10.3Z"/>
        <path class="cls-2" d="M61.7,50.9H9.7c-.3,0-.6-.3-.6-.6V13.3c0-.3.3-.6.6-.6s.6.3.6.6v36.4h50.8V13.3c0-.3.3-.6.6-.6s.6.3.6.6v37c0,.3-.3.6-.6.6Z"/>
        <path class="cls-2" d="M51.7,62.9H19.7c-.3,0-.6-.3-.6-.6s.3-.6.6-.6h32c.3,0,.6.3.6.6s-.3.6-.6.6Z"/>
        <path class="cls-2" d="M41.7,47.9c0,0-.1,0-.2,0-.3-.1-.5-.5-.4-.8l3.9-11.7-9.3-14-9.3,14,3.9,11.7c.1.3,0,.7-.4.8-.3.1-.7,0-.8-.4l-4-12c0-.2,0-.4,0-.5l10-15c.2-.3.8-.3,1,0l10,15c.1.2.1.4,0,.5l-4,12c0,.3-.3.4-.6.4Z"/>
        <path class="cls-2" d="M35.7,38.9c-2,0-3.6-1.6-3.6-3.6s1.6-3.6,3.6-3.6,3.6,1.6,3.6,3.6-1.6,3.6-3.6,3.6ZM35.7,32.9c-1.3,0-2.4,1.1-2.4,2.4s1.1,2.4,2.4,2.4,2.4-1.1,2.4-2.4-1.1-2.4-2.4-2.4Z"/>
        <path class="cls-2" d="M54.7,9.7c-2,0-3.6,1.6-3.6,3.6s1.6,3.6,3.6,3.6,3.6-1.6,3.6-3.6-1.6-3.6-3.6-3.6ZM54.7,15.7c-1.3,0-2.4-1.1-2.4-2.4s1.1-2.4,2.4-2.4,2.4,1.1,2.4,2.4-1.1,2.4-2.4,2.4Z"/>
        <path class="cls-2" d="M16.7,9.7c-1.3,0-2.4.7-3.1,1.7-.4.6-.6,1.2-.6,1.9s.2,1.4.6,1.9c.6,1,1.8,1.7,3.1,1.7,2,0,3.6-1.6,3.6-3.6s-1.6-3.6-3.6-3.6ZM16.7,15.7c-1.3,0-2.4-1.1-2.4-2.4s1.1-2.4,2.4-2.4,2.4,1.1,2.4,2.4-1.1,2.4-2.4,2.4Z"/>
        <path class="cls-2" d="M35.7,32.9c-.3,0-.6-.3-.6-.6v-12c0-.3.3-.6.6-.6s.6.3.6.6v12c0,.3-.3.6-.6.6Z"/>
        <path class="cls-2" d="M51.7,13.9h-13c-.3,0-.6-.3-.6-.6s.3-.6.6-.6h13c.3,0,.6.3.6.6s-.3.6-.6.6Z"/>
        <path class="cls-2" d="M32.7,13.9h-13c-.3,0-.6-.3-.6-.6s.3-.6.6-.6h13c.3,0,.6.3.6.6s-.3.6-.6.6Z"/>
        <path class="cls-2" d="M37.7,9.7h-4c-.9,0-1.6.7-1.6,1.6v4c0,.9.7,1.6,1.6,1.6h4c.9,0,1.6-.7,1.6-1.6v-4c0-.9-.7-1.6-1.6-1.6ZM38.1,15.3c0,.2-.2.4-.4.4h-4c-.2,0-.4-.2-.4-.4v-4c0-.2.2-.4.4-.4h4c.2,0,.4.2.4.4v4Z"/>
        <path class="cls-2" d="M56.7,31.7h-4c-.9,0-1.6.7-1.6,1.6v4c0,.9.7,1.6,1.6,1.6h4c.9,0,1.6-.7,1.6-1.6v-4c0-.9-.7-1.6-1.6-1.6ZM57.1,37.3c0,.2-.2.4-.4.4h-4c-.2,0-.4-.2-.4-.4v-4c0-.2.2-.4.4-.4h4c.2,0,.4.2.4.4v4Z"/>
        <path class="cls-2" d="M18.7,31.7h-4c-.9,0-1.6.7-1.6,1.6v4c0,.9.7,1.6,1.6,1.6h4c.9,0,1.6-.7,1.6-1.6v-4c0-.9-.7-1.6-1.6-1.6ZM19.1,37.3c0,.2-.2.4-.4.4h-4c-.2,0-.4-.2-.4-.4v-4c0-.2.2-.4.4-.4h4c.2,0,.4.2.4.4v4Z"/>
        <path class="cls-2" d="M54.7,32.9c-.3,0-.6-.3-.6-.6,0-9.1-6.5-16.7-15.5-18.1-.3,0-.6-.4-.5-.7,0-.3.4-.6.7-.5,9.6,1.5,16.5,9.7,16.5,19.4s-.3.6-.6.6Z"/>
        <path class="cls-2" d="M16.7,32.9c-.3,0-.6-.3-.6-.6,0-9.7,7-17.9,16.5-19.4.3,0,.7.2.7.5s-.2.7-.5.7c-9,1.4-15.5,9.1-15.5,18.1s-.3.6-.6.6Z"/>
      </g>
      <g>
        <path class="cls-4" d="M-23.6,164.5h-26c-.3,0-.6.3-.6.6v5c0,.3.3.6.6.6h9.4v20.4h7.2v-20.4h9.4c.3,0,.6-.3.6-.6v-5c0-.3-.3-.6-.6-.6Z"/>
        <path class="cls-2" d="M-58.6,204.8c-.3,0-.6-.3-.6-.6v-52c0-.3.3-.6.6-.6s.6.3.6.6v52c0,.3-.3.6-.6.6Z"/>
        <path class="cls-2" d="M-14.6,188.8c-.3,0-.6-.3-.6-.6v-36c0-.3.3-.6.6-.6s.6.3.6.6v36c0,.3-.3.6-.6.6Z"/>
        <path class="cls-2" d="M-10.6,156.8h-52c-.3,0-.6-.3-.6-.6s.3-.6.6-.6H-10.6c.3,0,.6.3.6.6s-.3.6-.6.6Z"/>
        <path class="cls-2" d="M-26.6,200.8h-36c-.3,0-.6-.3-.6-.6s.3-.6.6-.6H-26.6c.3,0,.6.3.6.6s-.3.6-.6.6Z"/>
        <path class="cls-2" d="M-21.2,204.8c-.3,0-.5-.2-.6-.4l-5.4-16c0-.2,0-.5.1-.6s.4-.2.6-.1l16,5.4c.3,0,.4.3.4.6,0,.3-.2.5-.5.6l-7.9,2.2-2.2,7.9c0,.3-.3.4-.6.5h0ZM-25.6,189.1l4.3,12.9,1.8-6.3c0-.2.2-.4.4-.4l6.3-1.8-12.9-4.3Z"/>
        <path class="cls-2" d="M-23.6,164.5h-26c-.3,0-.6.3-.6.6v5c0,.3.3.6.6.6h9.4v20.4c0,.3.3.6.6.6h6c.3,0,.6-.3.6-.6v-20.4h9.4c.3,0,.6-.3.6-.6v-5c0-.3-.3-.6-.6-.6ZM-24.2,169.5h-9.4c-.3,0-.6.3-.6.6v20.4h-4.8v-20.4c0-.3-.3-.6-.6-.6h-9.4v-3.8h24.8v3.8Z"/>
        <path class="cls-2" d="M-31.6,191.8h-10c-.3,0-.6-.3-.6-.6s.3-.6.6-.6h10c.3,0,.6.3.6.6s-.3.6-.6.6Z"/>
        <path class="cls-2" d="M-23.6,172.8c-.3,0-.6-.3-.6-.6v-7c0-.3.3-.6.6-.6s.6.3.6.6v7c0,.3-.3.6-.6.6Z"/>
        <path class="cls-2" d="M-49.6,172.8c-.3,0-.6-.3-.6-.6v-7c0-.3.3-.6.6-.6s.6.3.6.6v7c0,.3-.3.6-.6.6Z"/>
      </g>
      <g>
        <path class="cls-4" d="M-11.8,231.8l-3.4,3.3-.9.9-18.7,18.7h0s-.6.5-.6.5l-8.2-8.2.5-.5,18.7-18.7.9-.9,3.4-3.4c1-.2,2,.1,2.7.8l4.6,4.6c.8.8,1,1.8.8,2.8Z"/>
        <g>
          <path class="cls-2" d="M-12.6,229l-4.6-4.6c-.7-.7-1.7-1-2.7-.8-.6,0-1.2.4-1.7.8l-3,3-19.1,19.1c0,0-.1.2-.2.3h0c0,.3,0,.5.2.6l.7.7,6.6,6.6.7.7c.1.1.3.2.4.2s0,0,.1,0h0c.1,0,.2-.1.3-.2l19.1-19.1.9-.9,2.2-2.1c.4-.4.7-1,.8-1.6.2-1,0-2.1-.8-2.8ZM-18.1,225.3l4.6,4.6c.7.7.7,1.9,0,2.6l-2.1,2.2-.9.9-18.7,18.7-3.1-3.1-4-4,18.7-18.7.9-.9,2.1-2.2c.7-.7,1.9-.7,2.6,0Z"/>
          <path class="cls-2" d="M-34.8,254.8h0s0,0,0-.1l-.4-.4-3.1-3.1-4.5-4.5s0,0,0,0c-.2-.1-.4-.2-.6-.1-.1,0-.2,0-.3.1,0,0-.1.2-.2.3h0c0,0-1.6,4.9-1.6,4.9,0,0,0,0,0,.1l-2.3,7c0,.2,0,.5.1.6.1.1.3.2.4.2s.1,0,.2,0l7-2.3s0,0,.1,0l4.8-1.6h0c.1,0,.2-.1.3-.2,0,0,.1-.2.1-.3,0-.2,0-.3,0-.5ZM-40.1,256.1l-1.3.4-5,1.7,1.7-5,.4-1.3,1.2-3.6,6.6,6.6-3.6,1.2Z"/>
          <path class="cls-2" d="M-38.9,251.3c-.2,0-.3,0-.4-.2-.2-.2-.2-.6,0-.9l19.2-19.2c.2-.2.6-.2.9,0,.2.2.2.6,0,.9l-19.2,19.2c-.1.1-.3.2-.4.2Z"/>
          <path class="cls-2" d="M-15.2,236.6c-.2,0-.3,0-.4-.2l-9-9c-.2-.2-.2-.6,0-.9s.6-.2.9,0l9,9c.2.2.2.6,0,.9-.1.1-.3.2-.4.2Z"/>
          <path class="cls-2" d="M-40.2,257.4c-.2,0-.3,0-.4-.2l-4.8-4.8c-.2-.2-.2-.6,0-.9s.6-.2.9,0l4.8,4.8c.2.2.2.6,0,.9-.1.1-.3.2-.4.2Z"/>
        </g>
        <g>
          <path class="cls-2" d="M-31.6,232c0,0-.1,0-.2,0-2.1-.8-4.3-1.2-6.5-1.2s-.6-.3-.6-.6v-6c0-.3.3-.6.6-.6,4,0,7.9.9,11.6,2.7.3.2.4.5.3.8-.2.3-.5.4-.8.3-3.3-1.6-6.8-2.5-10.4-2.6v4.8c2.1,0,4.3.5,6.3,1.2.3.1.5.5.4.8,0,.3-.3.4-.6.4Z"/>
          <path class="cls-2" d="M-38.4,276.8c-14.7,0-26.6-11.9-26.6-26.6s2.1-12.1,6-16.8l-2.6-2.6c-.2-.2-.2-.4-.2-.6,0-.2.2-.4.4-.4l13.9-3.7c.2,0,.4,0,.6.2.2.2.2.4.2.6l-3.7,13.9c0,.2-.2.4-.4.4-.2,0-.4,0-.6-.2l-2.4-2.4c-2.5,3.4-3.9,7.4-3.9,11.6,0,10.7,8.7,19.4,19.4,19.4s19.4-8.7,19.4-19.4-.4-4.4-1.2-6.5c-.1-.3,0-.7.4-.8.3-.1.7,0,.8.4.8,2.3,1.2,4.6,1.2,7,0,11.4-9.3,20.6-20.6,20.6s-20.6-9.3-20.6-20.6,1.6-9.3,4.6-13c.1-.1.3-.2.5-.2.2,0,.3,0,.5.2l2.1,2.1,3.2-11.8-11.8,3.2,2.3,2.3c.2.2.2.6,0,.8-3.9,4.6-6,10.4-6,16.4,0,14,11.4,25.4,25.4,25.4s25.4-11.4,25.4-25.4-.9-7.6-2.6-11c-.2-.3,0-.7.3-.8.3-.1.7,0,.8.3,1.8,3.7,2.7,7.6,2.7,11.6,0,14.7-11.9,26.6-26.6,26.6Z"/>
        </g>
      </g>
    </g>
  </g>
</svg>