<?xml version="1.0" encoding="UTF-8"?>
<svg xmlns="http://www.w3.org/2000/svg" version="1.1" viewBox="0 0 71.4 72.6">
  <defs>
    <style>
      .cls-1 {
        font-family: MyriadPro-Regular, 'Myriad Pro';
        font-size: 12px;
      }

      .cls-2 {
        fill: #fff;
      }

      .cls-3 {
        fill: #0f0d90;
      }

      .cls-4 {
        fill: #a1c8f6;
      }
    </style>
  </defs>
  <!-- Generator: Adobe Illustrator 28.7.8, SVG Export Plug-In . SVG Version: 1.2.0 Build 200)  -->
  <g>
    <g id="Layer_1">
      <text class="cls-1" transform="translate(82.3 114.5)"><tspan x="0" y="0">redesign</tspan></text>
      <g>
        <path class="cls-4" d="M63.1,91.9l-3.4,3.3-.9.9-18.7,18.7h0s-.6.5-.6.5l-8.2-8.2.5-.5,18.7-18.7.9-.9,3.4-3.4c1-.2,2,.1,2.7.8l4.6,4.6c.8.8,1,1.8.8,2.8Z"/>
        <g>
          <path class="cls-3" d="M62.3,89.1l-4.6-4.6c-.7-.7-1.7-1-2.7-.8-.6,0-1.2.4-1.7.8l-3,3-19.1,19.1c0,0-.1.2-.2.3h0c0,.3,0,.5.2.6l.7.7,6.6,6.6.7.7c.1.1.3.2.4.2s0,0,.1,0h0c.1,0,.2-.1.3-.2l19.1-19.1.9-.9,2.2-2.1c.4-.4.7-1,.8-1.6.2-1,0-2.1-.8-2.8ZM56.8,85.4l4.6,4.6c.7.7.7,1.9,0,2.6l-2.1,2.2-.9.9-18.7,18.7-3.1-3.1-4-4,18.7-18.7.9-.9,2.1-2.2c.7-.7,1.9-.7,2.6,0Z"/>
          <path class="cls-3" d="M40.2,114.8h0s0,0,0-.1l-.4-.4-3.1-3.1-4.5-4.5s0,0,0,0c-.2-.1-.4-.2-.6-.1-.1,0-.2,0-.3.1,0,0-.1.2-.2.3h0c0,0-1.6,4.9-1.6,4.9,0,0,0,0,0,.1l-2.3,7c0,.2,0,.5.1.6.1.1.3.2.4.2s.1,0,.2,0l7-2.3s0,0,.1,0l4.8-1.6h0c.1,0,.2-.1.3-.2,0,0,.1-.2.1-.3,0-.2,0-.3,0-.5ZM34.9,116.1l-1.3.4-5,1.7,1.7-5,.4-1.3,1.2-3.6,6.6,6.6-3.6,1.2Z"/>
          <path class="cls-3" d="M36,111.4c-.2,0-.3,0-.4-.2-.2-.2-.2-.6,0-.9l19.2-19.2c.2-.2.6-.2.9,0,.2.2.2.6,0,.9l-19.2,19.2c-.1.1-.3.2-.4.2Z"/>
          <path class="cls-3" d="M59.7,96.7c-.2,0-.3,0-.4-.2l-9-9c-.2-.2-.2-.6,0-.9s.6-.2.9,0l9,9c.2.2.2.6,0,.9-.1.1-.3.2-.4.2Z"/>
          <path class="cls-3" d="M34.7,117.5c-.2,0-.3,0-.4-.2l-4.8-4.8c-.2-.2-.2-.6,0-.9s.6-.2.9,0l4.8,4.8c.2.2.2.6,0,.9-.1.1-.3.2-.4.2Z"/>
        </g>
        <g>
          <path class="cls-3" d="M43.3,92c0,0-.1,0-.2,0-2.1-.8-4.3-1.2-6.5-1.2s-.6-.3-.6-.6v-6c0-.3.3-.6.6-.6,4,0,7.9.9,11.6,2.7.3.2.4.5.3.8-.2.3-.5.4-.8.3-3.3-1.6-6.8-2.5-10.4-2.6v4.8c2.1,0,4.3.5,6.3,1.2.3.1.5.5.4.8,0,.3-.3.4-.6.4Z"/>
          <path class="cls-3" d="M36.6,136.8c-14.7,0-26.6-11.9-26.6-26.6s2.1-12.1,6-16.8l-2.6-2.6c-.2-.2-.2-.4-.2-.6,0-.2.2-.4.4-.4l13.9-3.7c.2,0,.4,0,.6.2.2.2.2.4.2.6l-3.7,13.9c0,.2-.2.4-.4.4-.2,0-.4,0-.6-.2l-2.4-2.4c-2.5,3.4-3.9,7.4-3.9,11.6,0,10.7,8.7,19.4,19.4,19.4s19.4-8.7,19.4-19.4-.4-4.4-1.2-6.5c-.1-.3,0-.7.4-.8.3-.1.7,0,.8.4.8,2.3,1.2,4.6,1.2,7,0,11.4-9.3,20.6-20.6,20.6s-20.6-9.3-20.6-20.6,1.6-9.3,4.6-13c.1-.1.3-.2.5-.2.2,0,.3,0,.5.2l2.1,2.1,3.2-11.8-11.8,3.2,2.3,2.3c.2.2.2.6,0,.8-3.9,4.6-6,10.4-6,16.4,0,14,11.4,25.4,25.4,25.4s25.4-11.4,25.4-25.4-.9-7.6-2.6-11c-.2-.3,0-.7.3-.8.3-.1.7,0,.8.3,1.8,3.7,2.7,7.6,2.7,11.6,0,14.7-11.9,26.6-26.6,26.6Z"/>
        </g>
      </g>
      <g>
        <path class="cls-4" d="M62.3,18l-3.4,3.3-.9.9-18.7,18.7h0s-.6.5-.6.5l-8.2-8.2.5-.5,18.7-18.7.9-.9,3.4-3.4c1-.2,2,.1,2.7.8l4.6,4.6c.8.8,1,1.8.8,2.8Z"/>
        <g>
          <path class="cls-2" d="M61.4,15.1l-4.6-4.6c-.7-.7-1.7-1-2.7-.8-.6,0-1.2.4-1.7.8l-3,3-19.1,19.1c0,0-.1.2-.2.3h0c0,.3,0,.5.2.6l.7.7,6.6,6.6.7.7c.1.1.3.2.4.2s0,0,.1,0h0c.1,0,.2-.1.3-.2l19.1-19.1.9-.9,2.2-2.1c.4-.4.7-1,.8-1.6.2-1,0-2.1-.8-2.8ZM56,11.5l4.6,4.6c.7.7.7,1.9,0,2.6l-2.1,2.2-.9.9-18.7,18.7-3.1-3.1-4-4,18.7-18.7.9-.9,2.1-2.2c.7-.7,1.9-.7,2.6,0Z"/>
          <path class="cls-2" d="M39.3,40.9h0s0,0,0-.1l-.4-.4-3.1-3.1-4.5-4.5s0,0,0,0c-.2-.1-.4-.2-.6-.1-.1,0-.2,0-.3.1,0,0-.1.2-.2.3h0c0,0-1.6,4.9-1.6,4.9,0,0,0,0,0,.1l-2.3,7c0,.2,0,.5.1.6.1.1.3.2.4.2s.1,0,.2,0l7-2.3s0,0,.1,0l4.8-1.6h0c.1,0,.2-.1.3-.2,0,0,.1-.2.1-.3,0-.2,0-.3,0-.5ZM34,42.2l-1.3.4-5,1.7,1.7-5,.4-1.3,1.2-3.6,6.6,6.6-3.6,1.2Z"/>
          <path class="cls-2" d="M35.2,37.5c-.2,0-.3,0-.4-.2-.2-.2-.2-.6,0-.9l19.2-19.2c.2-.2.6-.2.9,0,.2.2.2.6,0,.9l-19.2,19.2c-.1.1-.3.2-.4.2Z"/>
          <path class="cls-2" d="M58.9,22.8c-.2,0-.3,0-.4-.2l-9-9c-.2-.2-.2-.6,0-.9s.6-.2.9,0l9,9c.2.2.2.6,0,.9-.1.1-.3.2-.4.2Z"/>
          <path class="cls-2" d="M33.9,43.5c-.2,0-.3,0-.4-.2l-4.8-4.8c-.2-.2-.2-.6,0-.9s.6-.2.9,0l4.8,4.8c.2.2.2.6,0,.9-.1.1-.3.2-.4.2Z"/>
        </g>
        <g>
          <path class="cls-2" d="M42.5,18.1c0,0-.1,0-.2,0-2.1-.8-4.3-1.2-6.5-1.2s-.6-.3-.6-.6v-6c0-.3.3-.6.6-.6,4,0,7.9.9,11.6,2.7.3.2.4.5.3.8-.2.3-.5.4-.8.3-3.3-1.6-6.8-2.5-10.4-2.6v4.8c2.1,0,4.3.5,6.3,1.2.3.1.5.5.4.8,0,.3-.3.4-.6.4Z"/>
          <path class="cls-2" d="M35.7,62.9c-14.7,0-26.6-11.9-26.6-26.6s2.1-12.1,6-16.8l-2.6-2.6c-.2-.2-.2-.4-.2-.6,0-.2.2-.4.4-.4l13.9-3.7c.2,0,.4,0,.6.2.2.2.2.4.2.6l-3.7,13.9c0,.2-.2.4-.4.4-.2,0-.4,0-.6-.2l-2.4-2.4c-2.5,3.4-3.9,7.4-3.9,11.6,0,10.7,8.7,19.4,19.4,19.4s19.4-8.7,19.4-19.4-.4-4.4-1.2-6.5c-.1-.3,0-.7.4-.8.3-.1.7,0,.8.4.8,2.3,1.2,4.6,1.2,7,0,11.4-9.3,20.6-20.6,20.6s-20.6-9.3-20.6-20.6,1.6-9.3,4.6-13c.1-.1.3-.2.5-.2.2,0,.3,0,.5.2l2.1,2.1,3.2-11.8-11.8,3.2,2.3,2.3c.2.2.2.6,0,.8-3.9,4.6-6,10.4-6,16.4,0,14,11.4,25.4,25.4,25.4s25.4-11.4,25.4-25.4-.9-7.6-2.6-11c-.2-.3,0-.7.3-.8.3-.1.7,0,.8.3,1.8,3.7,2.7,7.6,2.7,11.6,0,14.7-11.9,26.6-26.6,26.6Z"/>
        </g>
      </g>
    </g>
  </g>
</svg>