<?xml version="1.0" encoding="UTF-8"?>
<svg xmlns="http://www.w3.org/2000/svg" version="1.1" viewBox="0 0 71.4 72.6">
  <defs>
    <style>
      .cls-1 {
        font-family: MyriadPro-Regular, 'Myriad Pro';
        font-size: 12px;
      }

      .cls-2 {
        fill: #fff;
      }

      .cls-3 {
        fill: #0f0d90;
      }

      .cls-4 {
        fill: #a1c8f6;
      }
    </style>
  </defs>
  <!-- Generator: Adobe Illustrator 28.7.8, SVG Export Plug-In . SVG Version: 1.2.0 Build 200)  -->
  <g>
    <g id="Layer_1">
      <text class="cls-1" transform="translate(86.9 120.2)"><tspan x="0" y="0">criacao</tspan></text>
      <text class="cls-1" transform="translate(86.9 178.6)"><tspan x="0" y="0">ilustracao</tspan></text>
      <text class="cls-1" transform="translate(82.3 257.9)"><tspan x="0" y="0">projeto grafico</tspan></text>
      <text class="cls-1" transform="translate(82.3 399.3)"><tspan x="0" y="0">redesign</tspan></text>
      <text class="cls-1" transform="translate(80.4 327.1)"><tspan x="0" y="0">font</tspan></text>
      <g>
        <path class="cls-4" d="M49.1,113.7c0,4.1-1.8,7.9-5,10.5v1.5c0,.8-.4,1.5-.9,2,0,0,0,0,0,0h-15.6s0,0,0,0c-.6-.5-.9-1.2-.9-2v-1.5c-3.8-3.1-5.6-7.7-4.9-12.6.9-6,5.9-10.8,11.9-11.5,3.9-.4,7.7.8,10.6,3.4,2.9,2.6,4.5,6.3,4.5,10.2Z"/>
        <path class="cls-3" d="M51.4,135.1c-.1,0-.3,0-.4-.1l-4.9-3.8c-.3-.2-.3-.6-.1-.9.2-.3.6-.3.9-.1l4.4,3.4,4-4-3.4-4.4c-.2-.2-.2-.5,0-.7,1.4-2.1,2.3-4.3,2.8-6.7,0-.3.3-.5.5-.5l5.5-.7v-5.7l-5.5-.7c-.3,0-.5-.2-.5-.5-.5-2.4-1.4-4.6-2.8-6.7-.1-.2-.1-.5,0-.7l3.4-4.4-4-4-4.4,3.4c-.2.2-.5.2-.7,0-2.1-1.4-4.3-2.3-6.7-2.8-.3,0-.5-.3-.5-.5l-.7-5.5h-5.7l-.7,5.5c0,.3-.2.5-.5.5-2.4.5-4.6,1.4-6.7,2.8-.2.1-.5.1-.7,0l-4.4-3.4-4,4,3.4,4.4c.2.2.2.5,0,.7-1.4,2.1-2.3,4.3-2.8,6.7,0,.3-.3.5-.5.5l-5.5.7v5.7l5.5.7c.3,0,.5.2.5.5.5,2.4,1.4,4.6,2.8,6.7.1.2.1.5,0,.7l-3.4,4.4,4,4,4.4-3.4c.3-.2.7-.2.9.1.2.3.2.7-.1.9l-4.9,3.8c-.2.2-.6.2-.8,0l-4.8-4.8c-.2-.2-.2-.6,0-.8l3.5-4.5c-1.2-2-2.1-4.1-2.6-6.3l-5.7-.7c-.3,0-.5-.3-.5-.6v-6.8c0-.3.2-.6.5-.6l5.7-.7c.5-2.2,1.4-4.4,2.6-6.3l-3.5-4.5c-.2-.2-.2-.6,0-.8l4.8-4.8c.2-.2.6-.2.8,0l4.5,3.5c2-1.2,4.1-2.1,6.3-2.6l.7-5.7c0-.3.3-.5.6-.5h6.8c.3,0,.6.2.6.5l.7,5.7c2.2.5,4.4,1.4,6.3,2.6l4.5-3.5c.2-.2.6-.2.8,0l4.8,4.8c.2.2.2.6,0,.8l-3.5,4.5c1.2,2,2.1,4.1,2.6,6.3l5.7.7c.3,0,.5.3.5.6v6.8c0,.3-.2.6-.5.6l-5.7.7c-.5,2.2-1.4,4.4-2.6,6.3l3.5,4.5c.2.2.2.6,0,.8l-4.8,4.8c-.1.1-.3.2-.4.2Z"/>
        <g>
          <path class="cls-3" d="M44.5,103.5c-2.9-2.6-6.7-3.8-10.6-3.4-6,.7-11.1,5.5-11.9,11.5-.7,4.8,1.1,9.5,4.9,12.6v1.5c0,.8.4,1.5.9,2,0,0,0,0,.1,0,.4.3,1,.5,1.6.5h12c.6,0,1.1-.2,1.6-.5,0,0,0,0,.1,0,.6-.5.9-1.2.9-2v-1.5c3.2-2.6,5-6.4,5-10.5s-1.6-7.6-4.5-10.2ZM43,123.4c-.1.1-.2.3-.2.5v1.8c0,.8-.6,1.4-1.4,1.4h-12c-.8,0-1.4-.6-1.4-1.4v-1.8c0-.2,0-.4-.2-.5-3.6-2.8-5.3-7.1-4.6-11.6.8-5.5,5.4-9.8,10.8-10.5.5,0,1,0,1.4,0,3,0,5.9,1.1,8.2,3.2,2.6,2.3,4.1,5.7,4.1,9.2s-1.7,7.4-4.8,9.7Z"/>
          <path class="cls-3" d="M43.2,127.8s0,0,0,0c-.5-.4-1-.6-1.7-.6h-12c-.6,0-1.2.2-1.7.6,0,0,0,0,0,0-.5.5-.8,1.2-.8,1.9s.4,1.5.9,2c.5.4,1,.6,1.7.6h12c.6,0,1.2-.2,1.7-.6.6-.5.9-1.2.9-2s-.3-1.4-.8-1.9ZM29.4,131.1c-.8,0-1.4-.6-1.4-1.4s.6-1.4,1.4-1.4h12c.8,0,1.4.6,1.4,1.4s-.6,1.4-1.4,1.4h-12Z"/>
          <path class="cls-3" d="M43.1,131.7c-.5-.4-1-.6-1.7-.6h-12c-.6,0-1.2.2-1.7.6-.6.5-.9,1.2-.9,2,0,1.4,1.1,2.5,2.5,2.6h12.2c1.4,0,2.5-1.2,2.5-2.6s-.4-1.5-.9-2ZM41.4,135.1h-12c-.8,0-1.4-.6-1.4-1.4s.6-1.4,1.4-1.4h12c.8,0,1.4.6,1.4,1.4s-.6,1.4-1.4,1.4Z"/>
          <path class="cls-3" d="M40.9,135.1h-11c-.4,0-.6.3-.6.6v1c0,2,1.6,3.6,3.6,3.6h5c2,0,3.6-1.6,3.6-3.6v-1c0-.3-.3-.6-.6-.6ZM40.3,136.7c0,1.3-1.1,2.4-2.4,2.4h-5c-1.3,0-2.4-1.1-2.4-2.4v-.4h9.8v.4Z"/>
          <path class="cls-3" d="M30.4,114.3h-3c-.3,0-.6-.3-.6-.6s.3-.6.6-.6h3c.3,0,.6.3.6.6s-.3.6-.6.6Z"/>
          <path class="cls-3" d="M43.4,114.3h-3c-.3,0-.6-.3-.6-.6s.3-.6.6-.6h3c.3,0,.6.3.6.6s-.3.6-.6.6Z"/>
          <path class="cls-3" d="M35.4,109.3c-.3,0-.6-.3-.6-.6v-3c0-.3.3-.6.6-.6s.6.3.6.6v3c0,.3-.3.6-.6.6Z"/>
          <path class="cls-3" d="M35.4,122.3c-.3,0-.6-.3-.6-.6v-3c0-.3.3-.6.6-.6s.6.3.6.6v3c0,.3-.3.6-.6.6Z"/>
          <path class="cls-3" d="M29.8,120c-.2,0-.3,0-.4-.2-.2-.2-.2-.6,0-.9l2.1-2.1c.2-.2.6-.2.9,0,.2.2.2.6,0,.9l-2.1,2.1c-.1.1-.3.2-.4.2Z"/>
          <path class="cls-3" d="M39,110.8c-.2,0-.3,0-.4-.2-.2-.2-.2-.6,0-.9l2.1-2.1c.2-.2.6-.2.9,0,.2.2.2.6,0,.9l-2.1,2.1c-.1.1-.3.2-.4.2Z"/>
          <path class="cls-3" d="M31.9,110.8c-.2,0-.3,0-.4-.2l-2.1-2.1c-.2-.2-.2-.6,0-.9.2-.2.6-.2.9,0l2.1,2.1c.2.2.2.6,0,.9s-.3.2-.4.2Z"/>
          <path class="cls-3" d="M41.1,120c-.2,0-.3,0-.4-.2l-2.1-2.1c-.2-.2-.2-.6,0-.9.2-.2.6-.2.9,0l2.1,2.1c.2.2.2.6,0,.9-.1.1-.3.2-.4.2Z"/>
        </g>
      </g>
      <g>
        <rect class="cls-4" x="14.6" y="246.4" width="7.2" height="7.2" rx="1.6" ry="1.6"/>
        <rect class="cls-4" x="52.6" y="246.4" width="7.2" height="7.2" rx="1.6" ry="1.6"/>
        <path class="cls-4" d="M21.8,228.1c0,2-1.6,3.6-3.6,3.6s-2.4-.7-3.1-1.7v-3.9c.6-1,1.8-1.7,3.1-1.7,2,0,3.6,1.6,3.6,3.6Z"/>
        <rect class="cls-4" x="33.6" y="224.4" width="7.2" height="7.2" rx="1.6" ry="1.6"/>
        <circle class="cls-4" cx="56.2" cy="228.1" r="3.6"/>
        <path class="cls-3" d="M48,277.7h-21.6c-.3,0-.6-.3-.6-.6v-6c0-.3.3-.6.6-.6h21.6c.3,0,.6.3.6.6v6c0,.3-.3.6-.6.6ZM27,276.4h20.3v-4.8h-20.3v4.8Z"/>
        <path class="cls-3" d="M61.2,271.7H13.2c-1.4,0-2.6-1.2-2.6-2.6v-4c0-.3.3-.6.6-.6h52c.3,0,.6.3.6.6v4c0,1.4-1.2,2.6-2.6,2.6ZM11.8,265.7v3.4c0,.8.6,1.4,1.4,1.4h48c.8,0,1.4-.6,1.4-1.4v-3.4H11.8Z"/>
        <path class="cls-3" d="M63.2,265.7H11.2c-.3,0-.6-.3-.6-.6v-37c0-.3.3-.6.6-.6s.6.3.6.6v36.4h50.8v-36.4c0-.3.3-.6.6-.6s.6.3.6.6v37c0,.3-.3.6-.6.6Z"/>
        <path class="cls-3" d="M53.2,277.7H21.2c-.3,0-.6-.3-.6-.6s.3-.6.6-.6h32c.3,0,.6.3.6.6s-.3.6-.6.6Z"/>
        <path class="cls-3" d="M43.2,262.7c0,0-.1,0-.2,0-.3-.1-.5-.5-.4-.8l3.9-11.7-9.3-14-9.3,14,3.9,11.7c.1.3,0,.7-.4.8-.3.1-.7,0-.8-.4l-4-12c0-.2,0-.4,0-.5l10-15c.2-.3.8-.3,1,0l10,15c.1.2.1.4,0,.5l-4,12c0,.3-.3.4-.6.4Z"/>
        <path class="cls-3" d="M37.2,253.7c-2,0-3.6-1.6-3.6-3.6s1.6-3.6,3.6-3.6,3.6,1.6,3.6,3.6-1.6,3.6-3.6,3.6ZM37.2,247.7c-1.3,0-2.4,1.1-2.4,2.4s1.1,2.4,2.4,2.4,2.4-1.1,2.4-2.4-1.1-2.4-2.4-2.4Z"/>
        <path class="cls-3" d="M56.2,224.4c-2,0-3.6,1.6-3.6,3.6s1.6,3.6,3.6,3.6,3.6-1.6,3.6-3.6-1.6-3.6-3.6-3.6ZM56.2,230.4c-1.3,0-2.4-1.1-2.4-2.4s1.1-2.4,2.4-2.4,2.4,1.1,2.4,2.4-1.1,2.4-2.4,2.4Z"/>
        <path class="cls-3" d="M18.2,224.4c-1.3,0-2.4.7-3.1,1.7-.4.6-.6,1.2-.6,1.9s.2,1.4.6,1.9c.6,1,1.8,1.7,3.1,1.7,2,0,3.6-1.6,3.6-3.6s-1.6-3.6-3.6-3.6ZM18.2,230.4c-1.3,0-2.4-1.1-2.4-2.4s1.1-2.4,2.4-2.4,2.4,1.1,2.4,2.4-1.1,2.4-2.4,2.4Z"/>
        <path class="cls-3" d="M37.2,247.7c-.3,0-.6-.3-.6-.6v-12c0-.3.3-.6.6-.6s.6.3.6.6v12c0,.3-.3.6-.6.6Z"/>
        <path class="cls-3" d="M53.2,228.7h-13c-.3,0-.6-.3-.6-.6s.3-.6.6-.6h13c.3,0,.6.3.6.6s-.3.6-.6.6Z"/>
        <path class="cls-3" d="M34.2,228.7h-13c-.3,0-.6-.3-.6-.6s.3-.6.6-.6h13c.3,0,.6.3.6.6s-.3.6-.6.6Z"/>
        <path class="cls-3" d="M39.2,224.4h-4c-.9,0-1.6.7-1.6,1.6v4c0,.9.7,1.6,1.6,1.6h4c.9,0,1.6-.7,1.6-1.6v-4c0-.9-.7-1.6-1.6-1.6ZM39.6,230.1c0,.2-.2.4-.4.4h-4c-.2,0-.4-.2-.4-.4v-4c0-.2.2-.4.4-.4h4c.2,0,.4.2.4.4v4Z"/>
        <path class="cls-3" d="M58.2,246.4h-4c-.9,0-1.6.7-1.6,1.6v4c0,.9.7,1.6,1.6,1.6h4c.9,0,1.6-.7,1.6-1.6v-4c0-.9-.7-1.6-1.6-1.6ZM58.6,252.1c0,.2-.2.4-.4.4h-4c-.2,0-.4-.2-.4-.4v-4c0-.2.2-.4.4-.4h4c.2,0,.4.2.4.4v4Z"/>
        <path class="cls-3" d="M20.2,246.4h-4c-.9,0-1.6.7-1.6,1.6v4c0,.9.7,1.6,1.6,1.6h4c.9,0,1.6-.7,1.6-1.6v-4c0-.9-.7-1.6-1.6-1.6ZM20.6,252.1c0,.2-.2.4-.4.4h-4c-.2,0-.4-.2-.4-.4v-4c0-.2.2-.4.4-.4h4c.2,0,.4.2.4.4v4Z"/>
        <path class="cls-3" d="M56.2,247.7c-.3,0-.6-.3-.6-.6,0-9.1-6.5-16.7-15.5-18.1-.3,0-.6-.4-.5-.7,0-.3.4-.6.7-.5,9.6,1.5,16.5,9.7,16.5,19.4s-.3.6-.6.6Z"/>
        <path class="cls-3" d="M18.2,247.7c-.3,0-.6-.3-.6-.6,0-9.7,7-17.9,16.5-19.4.3,0,.7.2.7.5s-.2.7-.5.7c-9,1.4-15.5,9.1-15.5,18.1s-.3.6-.6.6Z"/>
      </g>
      <g>
        <path class="cls-4" d="M19.2,157.8v43.2h-6c-1.5,0-2.6-1.2-2.6-2.6v-38c0-1.5,1.2-2.6,2.6-2.6h6Z"/>
        <g>
          <path class="cls-3" d="M63.8,160.4v38c0,1.5-1.2,2.6-2.6,2.6H13.2c-1.5,0-2.6-1.2-2.6-2.6v-38c0-1.5,1.2-2.6,2.6-2.6h27.8c.3,0,.6.3.6.6s-.3.6-.6.6H13.2c-.8,0-1.4.6-1.4,1.4v38c0,.8.6,1.4,1.4,1.4h48c.8,0,1.4-.6,1.4-1.4v-38c0-.8-.6-1.4-1.4-1.4h-4.2c-.3,0-.6-.3-.6-.6s.3-.6.6-.6h4.2c1.5,0,2.6,1.2,2.6,2.6Z"/>
          <circle class="cls-3" cx="15.2" cy="179.4" r="1"/>
          <circle class="cls-3" cx="15.2" cy="173.4" r="1"/>
          <circle class="cls-3" cx="15.2" cy="191.4" r="1"/>
          <circle class="cls-3" cx="15.2" cy="185.4" r="1"/>
          <circle class="cls-3" cx="15.2" cy="167.4" r="1"/>
          <path class="cls-3" d="M19.2,198c-.3,0-.6-.3-.6-.6v-36c0-.3.3-.6.6-.6s.6.3.6.6v36c0,.3-.3.6-.6.6Z"/>
        </g>
        <path class="cls-3" d="M34.2,175c-.4,0-.9-.2-1.2-.5-.4-.4-.5-.8-.5-1.3v-1.3c.2-1.1.7-2.2,1.5-3l20.2-20.2c1.2-1.2,3.4-1.2,4.6,0,.6.6.9,1.4.9,2.3s-.3,1.7-.9,2.3l-20.2,20.2c-.8.8-1.8,1.3-3,1.4h-1.3c0,.1-.1.1-.2.1ZM35.6,174.3h0,0ZM56.6,149c-.5,0-1,.2-1.4.6l-20.2,20.2c-.6.6-1,1.4-1,2.2v1.3c-.1.2,0,.3,0,.3,0,0,.2.1.3.1h1.3c.8-.2,1.6-.6,2.2-1.1l20.2-20.2c.4-.4.6-.9.6-1.4s-.2-1-.6-1.4c-.4-.4-.9-.6-1.4-.6Z"/>
        <g>
          <path class="cls-3" d="M38.2,195h-3c-2,0-3.6-1.6-3.6-3.6s1.6-3.6,3.6-3.6h17c1.9,0,3.4-1.5,3.4-3.4s-1.5-3.4-3.4-3.4h-6c-.3,0-.6-.3-.6-.6s.3-.6.6-.6h6c2.5,0,4.6,2.1,4.6,4.6s-2.1,4.6-4.6,4.6h-17c-1.3,0-2.4,1.1-2.4,2.4s1.1,2.4,2.4,2.4h3c.3,0,.6.3.6.6s-.3.6-.6.6Z"/>
          <path class="cls-3" d="M42.2,181h-16c-2,0-3.6-1.6-3.6-3.6s1.6-3.6,3.6-3.6h3c.3,0,.6.3.6.6s-.3.6-.6.6h-3c-1.3,0-2.4,1.1-2.4,2.4s1.1,2.4,2.4,2.4h16c.3,0,.6.3.6.6s-.3.6-.6.6Z"/>
        </g>
      </g>
      <g>
        <path class="cls-4" d="M51.3,309.4h-26c-.3,0-.6.3-.6.6v5c0,.3.3.6.6.6h9.4v20.4h7.2v-20.4h9.4c.3,0,.6-.3.6-.6v-5c0-.3-.3-.6-.6-.6Z"/>
        <path class="cls-3" d="M16.3,349.7c-.3,0-.6-.3-.6-.6v-52c0-.3.3-.6.6-.6s.6.3.6.6v52c0,.3-.3.6-.6.6Z"/>
        <path class="cls-3" d="M60.3,333.7c-.3,0-.6-.3-.6-.6v-36c0-.3.3-.6.6-.6s.6.3.6.6v36c0,.3-.3.6-.6.6Z"/>
        <path class="cls-3" d="M64.3,301.7H12.3c-.3,0-.6-.3-.6-.6s.3-.6.6-.6h52c.3,0,.6.3.6.6s-.3.6-.6.6Z"/>
        <path class="cls-3" d="M48.3,345.7H12.3c-.3,0-.6-.3-.6-.6s.3-.6.6-.6h36c.3,0,.6.3.6.6s-.3.6-.6.6Z"/>
        <path class="cls-3" d="M53.7,349.7c-.3,0-.5-.2-.6-.4l-5.4-16c0-.2,0-.5.1-.6s.4-.2.6-.1l16,5.4c.3,0,.4.3.4.6,0,.3-.2.5-.5.6l-7.9,2.2-2.2,7.9c0,.3-.3.4-.6.5h0ZM49.3,334l4.3,12.9,1.8-6.3c0-.2.2-.4.4-.4l6.3-1.8-12.9-4.3Z"/>
        <path class="cls-3" d="M51.3,309.4h-26c-.3,0-.6.3-.6.6v5c0,.3.3.6.6.6h9.4v20.4c0,.3.3.6.6.6h6c.3,0,.6-.3.6-.6v-20.4h9.4c.3,0,.6-.3.6-.6v-5c0-.3-.3-.6-.6-.6ZM50.7,314.4h-9.4c-.3,0-.6.3-.6.6v20.4h-4.8v-20.4c0-.3-.3-.6-.6-.6h-9.4v-3.8h24.8v3.8Z"/>
        <path class="cls-3" d="M43.3,336.7h-10c-.3,0-.6-.3-.6-.6s.3-.6.6-.6h10c.3,0,.6.3.6.6s-.3.6-.6.6Z"/>
        <path class="cls-3" d="M51.3,317.7c-.3,0-.6-.3-.6-.6v-7c0-.3.3-.6.6-.6s.6.3.6.6v7c0,.3-.3.6-.6.6Z"/>
        <path class="cls-3" d="M25.3,317.7c-.3,0-.6-.3-.6-.6v-7c0-.3.3-.6.6-.6s.6.3.6.6v7c0,.3-.3.6-.6.6Z"/>
      </g>
      <g>
        <path class="cls-4" d="M63.1,376.7l-3.4,3.3-.9.9-18.7,18.7h0s-.6.5-.6.5l-8.2-8.2.5-.5,18.7-18.7.9-.9,3.4-3.4c1-.2,2,.1,2.7.8l4.6,4.6c.8.8,1,1.8.8,2.8Z"/>
        <g>
          <path class="cls-3" d="M62.3,373.9l-4.6-4.6c-.7-.7-1.7-1-2.7-.8-.6,0-1.2.4-1.7.8l-3,3-19.1,19.1c0,0-.1.2-.2.3h0c0,.3,0,.5.2.6l.7.7,6.6,6.6.7.7c.1.1.3.2.4.2s0,0,.1,0h0c.1,0,.2-.1.3-.2l19.1-19.1.9-.9,2.2-2.1c.4-.4.7-1,.8-1.6.2-1,0-2.1-.8-2.8ZM56.8,370.2l4.6,4.6c.7.7.7,1.9,0,2.6l-2.1,2.2-.9.9-18.7,18.7-3.1-3.1-4-4,18.7-18.7.9-.9,2.1-2.2c.7-.7,1.9-.7,2.6,0Z"/>
          <path class="cls-3" d="M40.2,399.7h0s0,0,0-.1l-.4-.4-3.1-3.1-4.5-4.5s0,0,0,0c-.2-.1-.4-.2-.6-.1-.1,0-.2,0-.3.1,0,0-.1.2-.2.3h0c0,0-1.6,4.9-1.6,4.9,0,0,0,0,0,.1l-2.3,7c0,.2,0,.5.1.6.1.1.3.2.4.2s.1,0,.2,0l7-2.3s0,0,.1,0l4.8-1.6h0c.1,0,.2-.1.3-.2,0,0,.1-.2.1-.3,0-.2,0-.3,0-.5ZM34.9,401l-1.3.4-5,1.7,1.7-5,.4-1.3,1.2-3.6,6.6,6.6-3.6,1.2Z"/>
          <path class="cls-3" d="M36,396.2c-.2,0-.3,0-.4-.2-.2-.2-.2-.6,0-.9l19.2-19.2c.2-.2.6-.2.9,0,.2.2.2.6,0,.9l-19.2,19.2c-.1.1-.3.2-.4.2Z"/>
          <path class="cls-3" d="M59.7,381.5c-.2,0-.3,0-.4-.2l-9-9c-.2-.2-.2-.6,0-.9s.6-.2.9,0l9,9c.2.2.2.6,0,.9-.1.1-.3.2-.4.2Z"/>
          <path class="cls-3" d="M34.7,402.3c-.2,0-.3,0-.4-.2l-4.8-4.8c-.2-.2-.2-.6,0-.9s.6-.2.9,0l4.8,4.8c.2.2.2.6,0,.9-.1.1-.3.2-.4.2Z"/>
        </g>
        <g>
          <path class="cls-3" d="M43.3,376.9c0,0-.1,0-.2,0-2.1-.8-4.3-1.2-6.5-1.2s-.6-.3-.6-.6v-6c0-.3.3-.6.6-.6,4,0,7.9.9,11.6,2.7.3.2.4.5.3.8-.2.3-.5.4-.8.3-3.3-1.6-6.8-2.5-10.4-2.6v4.8c2.1,0,4.3.5,6.3,1.2.3.1.5.5.4.8,0,.3-.3.4-.6.4Z"/>
          <path class="cls-3" d="M36.6,421.7c-14.7,0-26.6-11.9-26.6-26.6s2.1-12.1,6-16.8l-2.6-2.6c-.2-.2-.2-.4-.2-.6,0-.2.2-.4.4-.4l13.9-3.7c.2,0,.4,0,.6.2.2.2.2.4.2.6l-3.7,13.9c0,.2-.2.4-.4.4-.2,0-.4,0-.6-.2l-2.4-2.4c-2.5,3.4-3.9,7.4-3.9,11.6,0,10.7,8.7,19.4,19.4,19.4s19.4-8.7,19.4-19.4-.4-4.4-1.2-6.5c-.1-.3,0-.7.4-.8.3-.1.7,0,.8.4.8,2.3,1.2,4.6,1.2,7,0,11.4-9.3,20.6-20.6,20.6s-20.6-9.3-20.6-20.6,1.6-9.3,4.6-13c.1-.1.3-.2.5-.2.2,0,.3,0,.5.2l2.1,2.1,3.2-11.8-11.8,3.2,2.3,2.3c.2.2.2.6,0,.8-3.9,4.6-6,10.4-6,16.4,0,14,11.4,25.4,25.4,25.4s25.4-11.4,25.4-25.4-.9-7.6-2.6-11c-.2-.3,0-.7.3-.8.3-.1.7,0,.8.3,1.8,3.7,2.7,7.6,2.7,11.6,0,14.7-11.9,26.6-26.6,26.6Z"/>
        </g>
      </g>
      <g>
        <path class="cls-4" d="M49.7,36.3c0,4.1-1.8,7.9-5,10.5v1.5c0,.8-.4,1.5-.9,2,0,0,0,0,0,0h-15.6s0,0,0,0c-.6-.5-.9-1.2-.9-2v-1.5c-3.8-3.1-5.6-7.7-4.9-12.6.9-6,5.9-10.8,11.9-11.5,3.9-.4,7.7.8,10.6,3.4,2.9,2.6,4.5,6.3,4.5,10.2Z"/>
        <path class="cls-2" d="M52,57.7c-.1,0-.3,0-.4-.1l-4.9-3.8c-.3-.2-.3-.6-.1-.9.2-.3.6-.3.9-.1l4.4,3.4,4-4-3.4-4.4c-.2-.2-.2-.5,0-.7,1.4-2.1,2.3-4.3,2.8-6.7,0-.3.3-.5.5-.5l5.5-.7v-5.7l-5.5-.7c-.3,0-.5-.2-.5-.5-.5-2.4-1.4-4.6-2.8-6.7-.1-.2-.1-.5,0-.7l3.4-4.4-4-4-4.4,3.4c-.2.2-.5.2-.7,0-2.1-1.4-4.3-2.3-6.7-2.8-.3,0-.5-.3-.5-.5l-.7-5.5h-5.7l-.7,5.5c0,.3-.2.5-.5.5-2.4.5-4.6,1.4-6.7,2.8-.2.1-.5.1-.7,0l-4.4-3.4-4,4,3.4,4.4c.2.2.2.5,0,.7-1.4,2.1-2.3,4.3-2.8,6.7,0,.3-.3.5-.5.5l-5.5.7v5.7l5.5.7c.3,0,.5.2.5.5.5,2.4,1.4,4.6,2.8,6.7.1.2.1.5,0,.7l-3.4,4.4,4,4,4.4-3.4c.3-.2.7-.2.9.1.2.3.2.7-.1.9l-4.9,3.8c-.2.2-.6.2-.8,0l-4.8-4.8c-.2-.2-.2-.6,0-.8l3.5-4.5c-1.2-2-2.1-4.1-2.6-6.3l-5.7-.7c-.3,0-.5-.3-.5-.6v-6.8c0-.3.2-.6.5-.6l5.7-.7c.5-2.2,1.4-4.4,2.6-6.3l-3.5-4.5c-.2-.2-.2-.6,0-.8l4.8-4.8c.2-.2.6-.2.8,0l4.5,3.5c2-1.2,4.1-2.1,6.3-2.6l.7-5.7c0-.3.3-.5.6-.5h6.8c.3,0,.6.2.6.5l.7,5.7c2.2.5,4.4,1.4,6.3,2.6l4.5-3.5c.2-.2.6-.2.8,0l4.8,4.8c.2.2.2.6,0,.8l-3.5,4.5c1.2,2,2.1,4.1,2.6,6.3l5.7.7c.3,0,.5.3.5.6v6.8c0,.3-.2.6-.5.6l-5.7.7c-.5,2.2-1.4,4.4-2.6,6.3l3.5,4.5c.2.2.2.6,0,.8l-4.8,4.8c-.1.1-.3.2-.4.2Z"/>
        <g>
          <path class="cls-2" d="M45.1,26.1c-2.9-2.6-6.7-3.8-10.6-3.4-6,.7-11.1,5.5-11.9,11.5-.7,4.8,1.1,9.5,4.9,12.6v1.5c0,.8.4,1.5.9,2,0,0,0,0,.1,0,.4.3,1,.5,1.6.5h12c.6,0,1.1-.2,1.6-.5,0,0,0,0,.1,0,.6-.5.9-1.2.9-2v-1.5c3.2-2.6,5-6.4,5-10.5s-1.6-7.6-4.5-10.2ZM43.7,46c-.1.1-.2.3-.2.5v1.8c0,.8-.6,1.4-1.4,1.4h-12c-.8,0-1.4-.6-1.4-1.4v-1.8c0-.2,0-.4-.2-.5-3.6-2.8-5.3-7.1-4.6-11.6.8-5.5,5.4-9.8,10.8-10.5.5,0,1,0,1.4,0,3,0,5.9,1.1,8.2,3.2,2.6,2.3,4.1,5.7,4.1,9.2s-1.7,7.4-4.8,9.7Z"/>
          <path class="cls-2" d="M43.8,50.4s0,0,0,0c-.5-.4-1-.6-1.7-.6h-12c-.6,0-1.2.2-1.7.6,0,0,0,0,0,0-.5.5-.8,1.2-.8,1.9s.4,1.5.9,2c.5.4,1,.6,1.7.6h12c.6,0,1.2-.2,1.7-.6.6-.5.9-1.2.9-2s-.3-1.4-.8-1.9ZM30.1,53.7c-.8,0-1.4-.6-1.4-1.4s.6-1.4,1.4-1.4h12c.8,0,1.4.6,1.4,1.4s-.6,1.4-1.4,1.4h-12Z"/>
          <path class="cls-2" d="M43.7,54.3c-.5-.4-1-.6-1.7-.6h-12c-.6,0-1.2.2-1.7.6-.6.5-.9,1.2-.9,2,0,1.4,1.1,2.5,2.5,2.6h12.2c1.4,0,2.5-1.2,2.5-2.6s-.4-1.5-.9-2ZM42.1,57.7h-12c-.8,0-1.4-.6-1.4-1.4s.6-1.4,1.4-1.4h12c.8,0,1.4.6,1.4,1.4s-.6,1.4-1.4,1.4Z"/>
          <path class="cls-2" d="M41.6,57.7h-11c-.4,0-.6.3-.6.6v1c0,2,1.6,3.6,3.6,3.6h5c2,0,3.6-1.6,3.6-3.6v-1c0-.3-.3-.6-.6-.6ZM40.9,59.3c0,1.3-1.1,2.4-2.4,2.4h-5c-1.3,0-2.4-1.1-2.4-2.4v-.4h9.8v.4Z"/>
          <path class="cls-2" d="M31.1,36.9h-3c-.3,0-.6-.3-.6-.6s.3-.6.6-.6h3c.3,0,.6.3.6.6s-.3.6-.6.6Z"/>
          <path class="cls-2" d="M44.1,36.9h-3c-.3,0-.6-.3-.6-.6s.3-.6.6-.6h3c.3,0,.6.3.6.6s-.3.6-.6.6Z"/>
          <path class="cls-2" d="M36.1,31.9c-.3,0-.6-.3-.6-.6v-3c0-.3.3-.6.6-.6s.6.3.6.6v3c0,.3-.3.6-.6.6Z"/>
          <path class="cls-2" d="M36.1,44.9c-.3,0-.6-.3-.6-.6v-3c0-.3.3-.6.6-.6s.6.3.6.6v3c0,.3-.3.6-.6.6Z"/>
          <path class="cls-2" d="M30.4,42.6c-.2,0-.3,0-.4-.2-.2-.2-.2-.6,0-.9l2.1-2.1c.2-.2.6-.2.9,0,.2.2.2.6,0,.9l-2.1,2.1c-.1.1-.3.2-.4.2Z"/>
          <path class="cls-2" d="M39.6,33.4c-.2,0-.3,0-.4-.2-.2-.2-.2-.6,0-.9l2.1-2.1c.2-.2.6-.2.9,0,.2.2.2.6,0,.9l-2.1,2.1c-.1.1-.3.2-.4.2Z"/>
          <path class="cls-2" d="M32.5,33.4c-.2,0-.3,0-.4-.2l-2.1-2.1c-.2-.2-.2-.6,0-.9.2-.2.6-.2.9,0l2.1,2.1c.2.2.2.6,0,.9s-.3.2-.4.2Z"/>
          <path class="cls-2" d="M41.7,42.6c-.2,0-.3,0-.4-.2l-2.1-2.1c-.2-.2-.2-.6,0-.9.2-.2.6-.2.9,0l2.1,2.1c.2.2.2.6,0,.9-.1.1-.3.2-.4.2Z"/>
        </g>
      </g>
      <g>
        <rect class="cls-4" x="-60.4" y="246.4" width="7.2" height="7.2" rx="-22.9" ry="-22.9"/>
        <rect class="cls-4" x="-22.4" y="246.4" width="7.2" height="7.2" rx="-3.9" ry="-3.9"/>
        <path class="cls-4" d="M-53.1,228.1c0,2-1.6,3.6-3.6,3.6s-2.4-.7-3.1-1.7v-3.9c.6-1,1.8-1.7,3.1-1.7,2,0,3.6,1.6,3.6,3.6Z"/>
        <rect class="cls-4" x="-41.4" y="224.4" width="7.2" height="7.2" rx="-13.4" ry="-13.4"/>
        <circle class="cls-4" cx="-18.7" cy="228.1" r="3.6"/>
        <path class="cls-2" d="M-26.9,277.7h-21.6c-.3,0-.6-.3-.6-.6v-6c0-.3.3-.6.6-.6h21.6c.3,0,.6.3.6.6v6c0,.3-.3.6-.6.6ZM-47.9,276.4h20.3v-4.8h-20.3v4.8Z"/>
        <path class="cls-2" d="M-13.7,271.7h-48c-1.4,0-2.6-1.2-2.6-2.6v-4c0-.3.3-.6.6-.6H-11.7c.3,0,.6.3.6.6v4c0,1.4-1.2,2.6-2.6,2.6ZM-63.1,265.7v3.4c0,.8.6,1.4,1.4,1.4H-13.7c.8,0,1.4-.6,1.4-1.4v-3.4h-50.8Z"/>
        <path class="cls-2" d="M-11.7,265.7h-52c-.3,0-.6-.3-.6-.6v-37c0-.3.3-.6.6-.6s.6.3.6.6v36.4H-12.4v-36.4c0-.3.3-.6.6-.6s.6.3.6.6v37c0,.3-.3.6-.6.6Z"/>
        <path class="cls-2" d="M-21.7,277.7h-32c-.3,0-.6-.3-.6-.6s.3-.6.6-.6H-21.7c.3,0,.6.3.6.6s-.3.6-.6.6Z"/>
        <path class="cls-2" d="M-31.7,262.7c0,0-.1,0-.2,0-.3-.1-.5-.5-.4-.8l3.9-11.7-9.3-14-9.3,14,3.9,11.7c.1.3,0,.7-.4.8-.3.1-.7,0-.8-.4l-4-12c0-.2,0-.4,0-.5l10-15c.2-.3.8-.3,1,0l10,15c.1.2.1.4,0,.5l-4,12c0,.3-.3.4-.6.4Z"/>
        <path class="cls-2" d="M-37.7,253.7c-2,0-3.6-1.6-3.6-3.6s1.6-3.6,3.6-3.6,3.6,1.6,3.6,3.6-1.6,3.6-3.6,3.6ZM-37.7,247.7c-1.3,0-2.4,1.1-2.4,2.4s1.1,2.4,2.4,2.4,2.4-1.1,2.4-2.4-1.1-2.4-2.4-2.4Z"/>
        <path class="cls-2" d="M-18.7,224.4c-2,0-3.6,1.6-3.6,3.6s1.6,3.6,3.6,3.6,3.6-1.6,3.6-3.6-1.6-3.6-3.6-3.6ZM-18.7,230.4c-1.3,0-2.4-1.1-2.4-2.4s1.1-2.4,2.4-2.4,2.4,1.1,2.4,2.4-1.1,2.4-2.4,2.4Z"/>
        <path class="cls-2" d="M-56.7,224.4c-1.3,0-2.4.7-3.1,1.7-.4.6-.6,1.2-.6,1.9s.2,1.4.6,1.9c.6,1,1.8,1.7,3.1,1.7,2,0,3.6-1.6,3.6-3.6s-1.6-3.6-3.6-3.6ZM-56.7,230.4c-1.3,0-2.4-1.1-2.4-2.4s1.1-2.4,2.4-2.4,2.4,1.1,2.4,2.4-1.1,2.4-2.4,2.4Z"/>
        <path class="cls-2" d="M-37.7,247.7c-.3,0-.6-.3-.6-.6v-12c0-.3.3-.6.6-.6s.6.3.6.6v12c0,.3-.3.6-.6.6Z"/>
        <path class="cls-2" d="M-21.7,228.7h-13c-.3,0-.6-.3-.6-.6s.3-.6.6-.6h13c.3,0,.6.3.6.6s-.3.6-.6.6Z"/>
        <path class="cls-2" d="M-40.7,228.7h-13c-.3,0-.6-.3-.6-.6s.3-.6.6-.6h13c.3,0,.6.3.6.6s-.3.6-.6.6Z"/>
        <path class="cls-2" d="M-35.7,224.4h-4c-.9,0-1.6.7-1.6,1.6v4c0,.9.7,1.6,1.6,1.6h4c.9,0,1.6-.7,1.6-1.6v-4c0-.9-.7-1.6-1.6-1.6ZM-35.4,230.1c0,.2-.2.4-.4.4h-4c-.2,0-.4-.2-.4-.4v-4c0-.2.2-.4.4-.4h4c.2,0,.4.2.4.4v4Z"/>
        <path class="cls-2" d="M-16.7,246.4h-4c-.9,0-1.6.7-1.6,1.6v4c0,.9.7,1.6,1.6,1.6h4c.9,0,1.6-.7,1.6-1.6v-4c0-.9-.7-1.6-1.6-1.6ZM-16.4,252.1c0,.2-.2.4-.4.4h-4c-.2,0-.4-.2-.4-.4v-4c0-.2.2-.4.4-.4h4c.2,0,.4.2.4.4v4Z"/>
        <path class="cls-2" d="M-54.7,246.4h-4c-.9,0-1.6.7-1.6,1.6v4c0,.9.7,1.6,1.6,1.6h4c.9,0,1.6-.7,1.6-1.6v-4c0-.9-.7-1.6-1.6-1.6ZM-54.4,252.1c0,.2-.2.4-.4.4h-4c-.2,0-.4-.2-.4-.4v-4c0-.2.2-.4.4-.4h4c.2,0,.4.2.4.4v4Z"/>
        <path class="cls-2" d="M-18.7,247.7c-.3,0-.6-.3-.6-.6,0-9.1-6.5-16.7-15.5-18.1-.3,0-.6-.4-.5-.7,0-.3.4-.6.7-.5,9.6,1.5,16.5,9.7,16.5,19.4s-.3.6-.6.6Z"/>
        <path class="cls-2" d="M-56.7,247.7c-.3,0-.6-.3-.6-.6,0-9.7,7-17.9,16.5-19.4.3,0,.7.2.7.5s-.2.7-.5.7c-9,1.4-15.5,9.1-15.5,18.1s-.3.6-.6.6Z"/>
      </g>
      <g>
        <path class="cls-4" d="M-55.7,157.8v43.2h-6c-1.5,0-2.6-1.2-2.6-2.6v-38c0-1.5,1.2-2.6,2.6-2.6h6Z"/>
        <g>
          <path class="cls-2" d="M-11.1,160.4v38c0,1.5-1.2,2.6-2.6,2.6h-48c-1.5,0-2.6-1.2-2.6-2.6v-38c0-1.5,1.2-2.6,2.6-2.6h27.8c.3,0,.6.3.6.6s-.3.6-.6.6h-27.8c-.8,0-1.4.6-1.4,1.4v38c0,.8.6,1.4,1.4,1.4H-13.7c.8,0,1.4-.6,1.4-1.4v-38c0-.8-.6-1.4-1.4-1.4h-4.2c-.3,0-.6-.3-.6-.6s.3-.6.6-.6h4.2c1.5,0,2.6,1.2,2.6,2.6Z"/>
          <circle class="cls-2" cx="-59.7" cy="179.4" r="1"/>
          <circle class="cls-2" cx="-59.7" cy="173.4" r="1"/>
          <circle class="cls-2" cx="-59.7" cy="191.4" r="1"/>
          <circle class="cls-2" cx="-59.7" cy="185.4" r="1"/>
          <circle class="cls-2" cx="-59.7" cy="167.4" r="1"/>
          <path class="cls-2" d="M-55.7,198c-.3,0-.6-.3-.6-.6v-36c0-.3.3-.6.6-.6s.6.3.6.6v36c0,.3-.3.6-.6.6Z"/>
        </g>
        <path class="cls-2" d="M-40.7,175c-.4,0-.9-.2-1.2-.5-.4-.4-.5-.8-.5-1.3v-1.3c.2-1.1.7-2.2,1.5-3l20.2-20.2c1.2-1.2,3.4-1.2,4.6,0,.6.6.9,1.4.9,2.3s-.3,1.7-.9,2.3l-20.2,20.2c-.8.8-1.8,1.3-3,1.4h-1.3c0,.1-.1.1-.2.1ZM-39.3,174.3h0,0ZM-18.3,149c-.5,0-1,.2-1.4.6l-20.2,20.2c-.6.6-1,1.4-1,2.2v1.3c-.1.2,0,.3,0,.3,0,0,.2.1.3.1h1.3c.8-.2,1.6-.6,2.2-1.1l20.2-20.2c.4-.4.6-.9.6-1.4s-.2-1-.6-1.4c-.4-.4-.9-.6-1.4-.6Z"/>
        <g>
          <path class="cls-2" d="M-36.7,195h-3c-2,0-3.6-1.6-3.6-3.6s1.6-3.6,3.6-3.6h17c1.9,0,3.4-1.5,3.4-3.4s-1.5-3.4-3.4-3.4h-6c-.3,0-.6-.3-.6-.6s.3-.6.6-.6h6c2.5,0,4.6,2.1,4.6,4.6s-2.1,4.6-4.6,4.6h-17c-1.3,0-2.4,1.1-2.4,2.4s1.1,2.4,2.4,2.4h3c.3,0,.6.3.6.6s-.3.6-.6.6Z"/>
          <path class="cls-2" d="M-32.7,181h-16c-2,0-3.6-1.6-3.6-3.6s1.6-3.6,3.6-3.6h3c.3,0,.6.3.6.6s-.3.6-.6.6h-3c-1.3,0-2.4,1.1-2.4,2.4s1.1,2.4,2.4,2.4h16c.3,0,.6.3.6.6s-.3.6-.6.6Z"/>
        </g>
      </g>
      <g>
        <path class="cls-4" d="M-23.6,309.4h-26c-.3,0-.6.3-.6.6v5c0,.3.3.6.6.6h9.4v20.4h7.2v-20.4h9.4c.3,0,.6-.3.6-.6v-5c0-.3-.3-.6-.6-.6Z"/>
        <path class="cls-2" d="M-58.6,349.7c-.3,0-.6-.3-.6-.6v-52c0-.3.3-.6.6-.6s.6.3.6.6v52c0,.3-.3.6-.6.6Z"/>
        <path class="cls-2" d="M-14.6,333.7c-.3,0-.6-.3-.6-.6v-36c0-.3.3-.6.6-.6s.6.3.6.6v36c0,.3-.3.6-.6.6Z"/>
        <path class="cls-2" d="M-10.6,301.7h-52c-.3,0-.6-.3-.6-.6s.3-.6.6-.6H-10.6c.3,0,.6.3.6.6s-.3.6-.6.6Z"/>
        <path class="cls-2" d="M-26.6,345.7h-36c-.3,0-.6-.3-.6-.6s.3-.6.6-.6H-26.6c.3,0,.6.3.6.6s-.3.6-.6.6Z"/>
        <path class="cls-2" d="M-21.2,349.7c-.3,0-.5-.2-.6-.4l-5.4-16c0-.2,0-.5.1-.6s.4-.2.6-.1l16,5.4c.3,0,.4.3.4.6,0,.3-.2.5-.5.6l-7.9,2.2-2.2,7.9c0,.3-.3.4-.6.5h0ZM-25.6,334l4.3,12.9,1.8-6.3c0-.2.2-.4.4-.4l6.3-1.8-12.9-4.3Z"/>
        <path class="cls-2" d="M-23.6,309.4h-26c-.3,0-.6.3-.6.6v5c0,.3.3.6.6.6h9.4v20.4c0,.3.3.6.6.6h6c.3,0,.6-.3.6-.6v-20.4h9.4c.3,0,.6-.3.6-.6v-5c0-.3-.3-.6-.6-.6ZM-24.2,314.4h-9.4c-.3,0-.6.3-.6.6v20.4h-4.8v-20.4c0-.3-.3-.6-.6-.6h-9.4v-3.8h24.8v3.8Z"/>
        <path class="cls-2" d="M-31.6,336.7h-10c-.3,0-.6-.3-.6-.6s.3-.6.6-.6h10c.3,0,.6.3.6.6s-.3.6-.6.6Z"/>
        <path class="cls-2" d="M-23.6,317.7c-.3,0-.6-.3-.6-.6v-7c0-.3.3-.6.6-.6s.6.3.6.6v7c0,.3-.3.6-.6.6Z"/>
        <path class="cls-2" d="M-49.6,317.7c-.3,0-.6-.3-.6-.6v-7c0-.3.3-.6.6-.6s.6.3.6.6v7c0,.3-.3.6-.6.6Z"/>
      </g>
      <g>
        <path class="cls-4" d="M-11.8,376.7l-3.4,3.3-.9.9-18.7,18.7h0s-.6.5-.6.5l-8.2-8.2.5-.5,18.7-18.7.9-.9,3.4-3.4c1-.2,2,.1,2.7.8l4.6,4.6c.8.8,1,1.8.8,2.8Z"/>
        <g>
          <path class="cls-2" d="M-12.6,373.9l-4.6-4.6c-.7-.7-1.7-1-2.7-.8-.6,0-1.2.4-1.7.8l-3,3-19.1,19.1c0,0-.1.2-.2.3h0c0,.3,0,.5.2.6l.7.7,6.6,6.6.7.7c.1.1.3.2.4.2s0,0,.1,0h0c.1,0,.2-.1.3-.2l19.1-19.1.9-.9,2.2-2.1c.4-.4.7-1,.8-1.6.2-1,0-2.1-.8-2.8ZM-18.1,370.2l4.6,4.6c.7.7.7,1.9,0,2.6l-2.1,2.2-.9.9-18.7,18.7-3.1-3.1-4-4,18.7-18.7.9-.9,2.1-2.2c.7-.7,1.9-.7,2.6,0Z"/>
          <path class="cls-2" d="M-34.8,399.7h0s0,0,0-.1l-.4-.4-3.1-3.1-4.5-4.5s0,0,0,0c-.2-.1-.4-.2-.6-.1-.1,0-.2,0-.3.1,0,0-.1.2-.2.3h0c0,0-1.6,4.9-1.6,4.9,0,0,0,0,0,.1l-2.3,7c0,.2,0,.5.1.6.1.1.3.2.4.2s.1,0,.2,0l7-2.3s0,0,.1,0l4.8-1.6h0c.1,0,.2-.1.3-.2,0,0,.1-.2.1-.3,0-.2,0-.3,0-.5ZM-40.1,401l-1.3.4-5,1.7,1.7-5,.4-1.3,1.2-3.6,6.6,6.6-3.6,1.2Z"/>
          <path class="cls-2" d="M-38.9,396.2c-.2,0-.3,0-.4-.2-.2-.2-.2-.6,0-.9l19.2-19.2c.2-.2.6-.2.9,0,.2.2.2.6,0,.9l-19.2,19.2c-.1.1-.3.2-.4.2Z"/>
          <path class="cls-2" d="M-15.2,381.5c-.2,0-.3,0-.4-.2l-9-9c-.2-.2-.2-.6,0-.9s.6-.2.9,0l9,9c.2.2.2.6,0,.9-.1.1-.3.2-.4.2Z"/>
          <path class="cls-2" d="M-40.2,402.3c-.2,0-.3,0-.4-.2l-4.8-4.8c-.2-.2-.2-.6,0-.9s.6-.2.9,0l4.8,4.8c.2.2.2.6,0,.9-.1.1-.3.2-.4.2Z"/>
        </g>
        <g>
          <path class="cls-2" d="M-31.6,376.9c0,0-.1,0-.2,0-2.1-.8-4.3-1.2-6.5-1.2s-.6-.3-.6-.6v-6c0-.3.3-.6.6-.6,4,0,7.9.9,11.6,2.7.3.2.4.5.3.8-.2.3-.5.4-.8.3-3.3-1.6-6.8-2.5-10.4-2.6v4.8c2.1,0,4.3.5,6.3,1.2.3.1.5.5.4.8,0,.3-.3.4-.6.4Z"/>
          <path class="cls-2" d="M-38.4,421.7c-14.7,0-26.6-11.9-26.6-26.6s2.1-12.1,6-16.8l-2.6-2.6c-.2-.2-.2-.4-.2-.6,0-.2.2-.4.4-.4l13.9-3.7c.2,0,.4,0,.6.2.2.2.2.4.2.6l-3.7,13.9c0,.2-.2.4-.4.4-.2,0-.4,0-.6-.2l-2.4-2.4c-2.5,3.4-3.9,7.4-3.9,11.6,0,10.7,8.7,19.4,19.4,19.4s19.4-8.7,19.4-19.4-.4-4.4-1.2-6.5c-.1-.3,0-.7.4-.8.3-.1.7,0,.8.4.8,2.3,1.2,4.6,1.2,7,0,11.4-9.3,20.6-20.6,20.6s-20.6-9.3-20.6-20.6,1.6-9.3,4.6-13c.1-.1.3-.2.5-.2.2,0,.3,0,.5.2l2.1,2.1,3.2-11.8-11.8,3.2,2.3,2.3c.2.2.2.6,0,.8-3.9,4.6-6,10.4-6,16.4,0,14,11.4,25.4,25.4,25.4s25.4-11.4,25.4-25.4-.9-7.6-2.6-11c-.2-.3,0-.7.3-.8.3-.1.7,0,.8.3,1.8,3.7,2.7,7.6,2.7,11.6,0,14.7-11.9,26.6-26.6,26.6Z"/>
        </g>
      </g>
    </g>
  </g>
</svg>