<?xml version="1.0" encoding="UTF-8"?>
<svg id="Layer_1" xmlns="http://www.w3.org/2000/svg" version="1.1" viewBox="0 0 785.26 266.84">
  <!-- Generator: Adobe Illustrator 29.4.0, SVG Export Plug-In . SVG Version: 2.1.0 Build 152)  -->
  <defs>
    <style>
      .st0 {
        fill: none;
        stroke: #fff;
        stroke-linejoin: round;
        stroke-width: 12px;
      }
    </style>
  </defs>
  <circle class="st0" cx="697.72" cy="133.47" r="56.72"/>
  <polygon class="st0" points="554.02 228.21 649.06 38.74 744.1 228.21 554.02 228.21"/>
  <path class="st0" d="M534.69,190.13c11.81-15.8,18.8-35.41,18.8-56.66h0c0-52.32-42.42-94.74-94.74-94.74h-94.74v188.88l-.3.6h190.07l-19.1-38.08Z"/>
  <g>
    <path class="st0" d="M174.25,38.74v94.74c0,.98.04,1.95.07,2.93l35.72,71.21c16.18,12.88,36.65,20.6,58.94,20.6h.3c52.32,0,94.74-42.42,94.74-94.74V38.74h-189.77Z"/>
    <polygon class="st0" points="125.33 38.74 30.3 228.21 220.37 228.21 125.33 38.74"/>
  </g>
</svg>